<svg xmlns="http://www.w3.org/2000/svg" width="3.528cm" height="3.528cm">
  <path fill="#F39D77" fill-rule="evenodd" d="M91.208 41.024H74.84L63.977 51.887c-1.839 1.839-5.002.531-5.002-2.072v-8.791h-2.93c-4.847 0-8.791-3.944-8.791-8.791V8.791C47.254 3.944 51.198 0 56.045 0h35.163C96.056 0 100 3.944 100 8.791v23.442c0 4.847-3.944 8.791-8.792 8.791zm2.931-32.233a2.935 2.935 0 0 0-2.931-2.931H56.045a2.935 2.935 0 0 0-2.931 2.931v23.442a2.935 2.935 0 0 0 2.931 2.931h5.86a2.93 2.93 0 0 1 2.931 2.93v4.647l6.719-6.719a2.927 2.927 0 0 1 2.072-.858h17.581a2.935 2.935 0 0 0 2.931-2.931V8.791zm-8.791 8.791H61.905a2.93 2.93 0 0 1 0-5.861h23.443a2.93 2.93 0 0 1 0 5.861zm-23.443 5.86h11.722a2.93 2.93 0 0 1 0 5.861H61.905a2.93 2.93 0 0 1 0-5.861zM32.998 37.993a6.654 6.654 0 0 0 0 9.418L52.65 66.998c.001.002.003.002.003.004a6.657 6.657 0 0 0 9.419 0l5.651-5.651a8.785 8.785 0 0 1 12.432 0l12.432 12.431c3.428 3.428 3.428 9.005 0 12.433l-4.143 4.144-.002.001c-13.357 13.357-33.37 12.213-45.207.376L9.265 56.832c-13.089-13.089-11.716-34.049.375-45.21l4.144-4.145a8.787 8.787 0 0 1 12.432 0L38.648 19.91a8.785 8.785 0 0 1 0 12.432l-5.65 5.651zm55.445 44.078a2.933 2.933 0 0 0 0-4.144L76.011 65.495a2.929 2.929 0 0 0-4.144 0l-2.072 2.072 16.576 16.576 2.072-2.072zM11.792 17.917c-8.425 10.141-7.888 25.266 1.616 34.769L47.377 86.59c9.577 9.577 24.672 10.027 34.772 1.619L65.631 71.691c-4.929 4.348-12.425 4.151-17.121-.545L28.857 51.559c-4.724-4.724-4.876-12.22-.549-17.125L11.792 17.917zm22.712 6.137L22.072 11.622a2.931 2.931 0 0 0-4.143 0l-2.073 2.072L32.432 30.27l2.072-2.072a2.927 2.927 0 0 0 0-4.144z"/>
</svg>
