<svg xmlns="http://www.w3.org/2000/svg" width="2.858cm" height="3.528cm">
  <path fill="#F39D77" fill-rule="evenodd" d="M80.152 75.705L57.01 99.141a2.886 2.886 0 0 1-2.046.859H2.892C1.295 100 0 98.688 0 97.07V2.929C0 1.311 1.295 0 2.892 0h75.214C79.704 0 81 1.311 81 2.929v70.704c0 .794-.323 1.54-.848 2.072zM57.857 89.997l13.266-13.435H57.857v13.435zM75.214 5.859H5.786V94.14h46.285V73.633c0-1.618 1.295-2.93 2.893-2.93h20.25V5.859zM46.285 61.914c0-1.618 1.295-2.93 2.893-2.93h17.357c1.598 0 2.893 1.312 2.893 2.93s-1.295 2.93-2.893 2.93H49.178c-1.598 0-2.893-1.312-2.893-2.93zm20.25-8.789H49.178c-1.598 0-2.893-1.312-2.893-2.93s1.295-2.929 2.893-2.929h17.357c1.598 0 2.893 1.311 2.893 2.929 0 1.618-1.295 2.93-2.893 2.93zm0-11.719H14.464c-1.598 0-2.893-1.311-2.893-2.93 0-1.618 1.295-2.929 2.893-2.929h52.071c1.598 0 2.893 1.311 2.893 2.929 0 1.619-1.295 2.93-2.893 2.93zm0-11.719H14.464c-1.598 0-2.893-1.311-2.893-2.929v-12.11c0-1.618 1.295-2.929 2.893-2.929h52.071c1.598 0 2.893 1.311 2.893 2.929v12.11c0 1.618-1.295 2.929-2.893 2.929zm-2.893-12.109H17.357v6.25h46.285v-6.25zM26.035 47.266c7.976 0 14.464 6.571 14.464 14.648 0 4.782-2.274 9.035-5.785 11.711v11.726a2.939 2.939 0 0 1-1.372 2.493 2.862 2.862 0 0 1-2.814.128l-4.493-2.275-4.492 2.275a2.862 2.862 0 0 1-2.814-.128 2.936 2.936 0 0 1-1.372-2.493V73.625a14.698 14.698 0 0 1-5.786-11.711c0-8.077 6.489-14.648 14.464-14.648zm-2.892 33.345l1.599-.81a2.862 2.862 0 0 1 2.587 0l1.599.81v-4.344a14.295 14.295 0 0 1-5.785 0v4.344zm2.892-9.908c4.786 0 8.679-3.943 8.679-8.789s-3.893-8.789-8.679-8.789c-4.785 0-8.678 3.943-8.678 8.789s3.893 8.789 8.678 8.789z"/>
</svg>
