<svg xmlns="http://www.w3.org/2000/svg" width="6.033cm" height="66.671">
  <path fill="#FFF" fill-rule="evenodd" d="M166.725 32.856v10.409h-5.191V32.856h-4.274V28.57H171v4.286h-4.275zm-16.671 5.205h-4.58v5.204h-5.19V28.57h5.19v5.205h4.58V28.57h5.191v14.695h-5.191v-5.204zm-20.396 5.663c-4.396 0-8.244-2.602-8.244-7.806 0-5.205 3.848-7.807 8.244-7.807 4.397 0 8.244 2.602 8.244 7.807 0 5.204-3.847 7.806-8.244 7.806zm0-11.021c-2.137 0-2.9 1.562-2.9 3.215 0 1.653.763 3.214 2.9 3.214s2.901-1.561 2.901-3.214-.764-3.215-2.901-3.215zm5.283-10.967c-1.619 0-2.81-.582-3.482-1.623-1.404 1.102-3.022 1.776-5.098 1.776-2.809 0-5.099-1.684-5.099-4.531 0-3.704 3.511-4.837 6.35-4.837 1.1 0 2.199.123 3.176.337v-.52c0-1.042-.977-1.837-3.053-1.837-1.924 0-3.695.551-5.13 1.132V7.255c1.222-.397 3.542-.979 5.71-.979 4.671 0 7.663 1.622 7.663 6.857v4.103c0 .704.489.918 1.008.918.184 0 .397-.03.581-.092v3.215c-.703.276-1.649.459-2.626.459zm-4.153-6.123c-.458-.153-1.16-.276-1.863-.276-1.221 0-2.32.429-2.32 1.593 0 .765.672 1.438 1.771 1.438.855 0 1.618-.183 2.412-.765v-1.99zm-16.58 5.817h-5.19V6.735h11.419v4.286h-6.229V21.43zm-17.373-5.786c.58 1.622 2.565 2.265 4.672 2.265 1.649 0 2.992-.245 4.214-.704v3.858c-1.374.49-3.115.826-5.436.826-4.824 0-8.701-2.755-8.701-7.807 0-5.755 4.488-7.806 7.694-7.806 6.29 0 8.183 4.898 7.144 9.368h-9.587zm2.565-5.603c-1.435 0-2.626.949-2.626 2.48h4.916c.153-.704-.213-2.48-2.29-2.48zm-.855 27.438h-9.587c.58 1.622 2.565 2.265 4.671 2.265 1.649 0 2.993-.245 4.214-.704v3.858c-1.374.489-3.114.826-5.435.826-4.824 0-8.701-2.755-8.701-7.806 0-5.756 4.488-7.807 7.694-7.807 6.289 0 8.183 4.898 7.144 9.368zm-7.022-5.602c-1.435 0-2.627.949-2.627 2.479h4.917c.152-.704-.214-2.479-2.29-2.479zm-8.092-21.836l-4.579 7.041h-3.237l-4.58-7.072v11.42h-5.649V0h5.344l6.504 10.041L83.737 0h5.343v21.43h-5.649V10.041zM65.386 32.46v-3.89h4.58v1.99c.733-1.224 2.352-2.449 4.978-2.449 4.915 0 7.083 4.01 7.083 7.807 0 3.796-2.168 7.806-7.083 7.806-2.046 0-3.481-.735-4.367-1.653V50h-5.191V39.82l-5.19-5.204V50H10.329V34.613L3.67 41.29l-3.671-3.68 10.33-10.357V0h49.867v27.256l5.19 5.204zm5.191 5.141a3.299 3.299 0 0 0 2.962 1.837c2.198 0 3.145-1.806 3.145-3.52 0-1.715-.947-3.521-3.145-3.521a3.299 3.299 0 0 0-2.962 1.837v3.367zm-55.058 7.195h39.487V29.412L35.261 9.614 15.519 29.409v15.387zm0-39.592v16.844l16.8-16.844h-16.8zm39.487 0H38.203l.728.73 16.075 16.118V5.204zm55.08 30.193l4.153-6.827h4.794v14.695h-5.069v-7.347l-2.747 4.5h-2.26l-2.748-4.5v7.347h-5.068V28.57h4.793l4.152 6.827z"/>
</svg>
