<svg xmlns="http://www.w3.org/2000/svg" width="2.858cm" height="2.858cm">
  <path fill="#F49E9C" fill-rule="evenodd" d="M78.914 35.559l-17.21 17.222v21.1c0 3.925-3.193 7.119-7.12 7.119H7.119c-3.926 0-7.12-3.194-7.12-7.119V7.119C-.001 3.194 3.193 0 7.119 0h40.753c1.902 0 3.69.74 5.034 2.085l6.713 6.712a7.07 7.07 0 0 1 2.085 5.034v18.806l7.141-7.146c2.776-2.776 7.294-2.776 10.069 0a7.115 7.115 0 0 1 0 10.068zM56.263 12.153L49.55 5.441c-.773-.773-1.637-.695-2.085-.695v9.492h9.493c0-.506.058-1.332-.695-2.085zm.695 6.831H45.091a2.373 2.373 0 0 1-2.373-2.373V4.746H7.119a2.376 2.376 0 0 0-2.373 2.373v66.762a2.376 2.376 0 0 0 2.373 2.373h47.465a2.376 2.376 0 0 0 2.374-2.373V57.529l-.288.288c-.261.26-.578.456-.928.573l-10.069 3.356a2.373 2.373 0 0 1-3.001-3.002l3.355-10.068c.117-.349.314-.667.574-.927l3.355-3.355 7.002-7.007V18.984zm-1.966 33.799l-3.356-3.356-1.283 1.282-1.678 5.034 5.035-1.678 1.282-1.282zm11.407-18.13L54.991 46.07l3.356 3.356 11.408-11.417-3.356-3.356zm9.159-5.806a2.375 2.375 0 0 0-3.356 0l-2.447 2.449 3.356 3.356 2.446-2.449a2.37 2.37 0 0 0 .001-3.356zm-30.467-.371H11.866a2.373 2.373 0 1 1 0-4.746h33.225a2.374 2.374 0 1 1 0 4.746zm-33.225 4.746h23.732a2.374 2.374 0 1 1 0 4.747H11.866a2.374 2.374 0 0 1 0-4.747zm0 9.493h23.732a2.373 2.373 0 1 1 0 4.746H11.866a2.374 2.374 0 1 1 0-4.746zm0 9.492h23.732a2.373 2.373 0 1 1 0 4.746H11.866a2.373 2.373 0 1 1 0-4.746zm18.986 14.555h14.239a2.373 2.373 0 1 1 0 4.746H30.852a2.373 2.373 0 0 1 0-4.746z"/>
</svg>
