<svg xmlns="http://www.w3.org/2000/svg" width="94.677" height="2.858cm">
  <path fill="#F49E9C" fill-rule="evenodd" d="M69.603 47.567A9.455 9.455 0 0 1 71 52.523c0 5.235-4.247 9.492-9.467 9.492h-.985C57.451 72.96 47.394 81 35.5 81c-11.895 0-21.952-8.04-25.05-18.985h-.983C4.246 62.015 0 57.758 0 52.523c0-1.815.511-3.512 1.397-4.956A2.37 2.37 0 0 1 0 45.404v-9.492a2.369 2.369 0 0 1 2.366-2.373h2.477c.825-9.277 6.412-17.239 14.09-21.194v-.48c0-3.925 3.185-7.119 7.1-7.119h2.366C28.399 2.129 30.523 0 33.133 0h4.733c2.61 0 4.734 2.129 4.734 4.746h2.366c3.915 0 7.1 3.194 7.1 7.119v.48c7.681 3.956 13.265 11.921 14.091 21.194h2.476A2.37 2.37 0 0 1 71 35.912v9.492c0 .964-.575 1.792-1.397 2.163zM14.2 54.896c0 11.777 9.555 21.358 21.3 21.358 11.744 0 21.3-9.581 21.3-21.358v-7.119H14.2v7.119zm-4.733 2.373h.108a26.196 26.196 0 0 1-.108-2.373v-7.119c-2.611 0-4.734 2.129-4.734 4.746 0 2.618 2.123 4.746 4.734 4.746zm42.599-39.41v3.498A2.369 2.369 0 0 1 49.7 23.73a2.37 2.37 0 0 1-2.367-2.373v-9.492a2.373 2.373 0 0 0-2.367-2.373H42.6v7.119a2.37 2.37 0 0 1-2.367 2.373 2.37 2.37 0 0 1-2.367-2.373V4.746h-4.733v11.865a2.369 2.369 0 0 1-2.366 2.373 2.37 2.37 0 0 1-2.368-2.373V9.492h-2.366a2.373 2.373 0 0 0-2.367 2.373v9.492A2.369 2.369 0 0 1 21.3 23.73a2.37 2.37 0 0 1-2.367-2.373v-3.498c-5.142 3.524-8.63 9.335-9.335 15.68h51.803c-.705-6.345-4.192-12.156-9.335-15.68zm14.201 20.426H4.733v4.746h61.534v-4.746zm-4.734 9.492v7.119c0 .801-.038 1.592-.109 2.373h.109c2.61 0 4.734-2.128 4.734-4.746 0-2.617-2.124-4.746-4.734-4.746zM35.5 66.762a11.742 11.742 0 0 1-8.368-3.476 2.378 2.378 0 0 1 0-3.356 2.362 2.362 0 0 1 3.347 0 7.043 7.043 0 0 0 5.021 2.085c1.896 0 3.679-.74 5.02-2.085a2.362 2.362 0 0 1 3.347 0c.925.927.925 2.43 0 3.356a11.741 11.741 0 0 1-8.367 3.476z"/>
</svg>
