<svg xmlns="http://www.w3.org/2000/svg" width="3.457cm" height="2.858cm">
  <path fill="#F49E9C" fill-rule="evenodd" d="M95.796 43.377c4.269 4.801 2.02 12.469-4.151 14.164 1.912 4.843-.832 10.227-5.742 11.576.391.992.609 2.07.609 3.2 0 4.788-3.864 8.683-8.613 8.683H64.476c-10.4 0-20.392-3.087-30.033-5.789h-3.356C29.901 78.58 26.71 81 22.967 81H2.871c-1.586 0-2.872-1.296-2.872-2.894V26.012c0-1.598 1.286-2.894 2.872-2.894h20.097c3.743 0 6.934 2.42 8.119 5.789l8.607-.001c10.965-7.624 12.516-14.86 13.654-20.172.474-2.214.883-4.127 1.906-5.696C56.567 1.022 58.641 0 61.418 0h.041c4.066.015 7.637 2.211 9.552 5.875 1.64 3.138 2.026 7.185 1.116 11.702-.715 3.546-2.201 7.341-4.433 11.329h21.688c7.426 0 11.371 8.895 6.414 14.471zm-69.958-11.55V31.8c0-1.595-1.288-2.894-2.871-2.894H5.741v46.305h17.226c1.583 0 2.871-1.298 2.871-2.893V31.827zm49.189 8.656h14.355c1.584 0 2.872-1.298 2.872-2.894s-1.288-2.894-2.872-2.894H62.526c-2.302 0-3.668-2.604-2.374-4.522 8.924-13.228 6.679-19.877 5.779-21.599-.935-1.789-2.531-2.779-4.493-2.786-1.434-.004-1.584-.005-2.478 4.168-1.213 5.665-3.244 15.148-16.791 24.252a2.858 2.858 0 0 1-1.578.486s-4.615-.038-9.01-.038v34.806c3.586 0 3.533-.07 4.02.067 9.421 2.632 19.184 5.682 28.875 5.682h13.423c1.582 0 2.871-1.298 2.871-2.894 0-1.595-1.289-2.894-2.871-2.894h-2.872c-1.585 0-2.87-1.295-2.87-2.894 0-1.598 1.285-2.894 2.87-2.894h8.614c1.583 0 2.871-1.298 2.871-2.894s-1.288-2.894-2.871-2.894h-8.614c-1.585 0-2.87-1.296-2.87-2.894s1.285-2.894 2.87-2.894h14.355c1.584 0 2.872-1.298 2.872-2.894s-1.288-2.894-2.872-2.894H75.027c-1.585 0-2.87-1.296-2.87-2.894 0-1.599 1.285-2.894 2.87-2.894zM17.226 69.424c-1.587 0-2.872-1.296-2.872-2.894s1.285-2.894 2.872-2.894c1.585 0 2.87 1.296 2.87 2.894s-1.285 2.894-2.87 2.894z"/>
</svg>
