<svg xmlns="http://www.w3.org/2000/svg" width="2.858cm" height="2.858cm">
  <path fill="#F49E9C" fill-rule="evenodd" d="M81 30.849V7.119C81 3.209 77.816 0 73.88 0H35.912c-3.926 0-7.119 3.2-7.119 7.119v11.865H11.865c-3.926 0-7.119 3.194-7.119 7.119v35.912H2.373A2.373 2.373 0 0 0 0 64.388v4.747C0 75.677 5.323 81 11.865 81h57.269C75.677 81 81 75.677 81 69.135v-4.747a2.374 2.374 0 0 0-2.374-2.373h-2.373V37.561A7.134 7.134 0 0 0 81 30.849zM33.539 8.102l10.882 10.882-10.882 10.882V8.102zm42.714 21.764L65.371 18.984 76.253 8.102v21.764zm-19.679-8.797a2.376 2.376 0 0 1-3.356 0L36.895 4.746h36.002L56.574 21.069zm-8.797 1.271l2.085 2.085a7.127 7.127 0 0 0 10.068 0l2.085-2.085 10.882 10.882H36.895L47.777 22.34zm28.476 46.795c0 3.925-3.193 7.119-7.119 7.119H11.865c-3.926 0-7.119-3.194-7.119-7.119v-2.373H23.73v2.373a2.374 2.374 0 0 0 2.373 2.373h28.793a2.374 2.374 0 0 0 2.373-2.373v-2.373h18.984v2.373zm-21.357-7.12a2.374 2.374 0 0 0-2.373 2.373v2.374H28.476v-2.374a2.374 2.374 0 0 0-2.373-2.373H9.492V26.103a2.376 2.376 0 0 1 2.373-2.373h16.928v7.119c0 3.926 3.2 7.12 7.119 7.12h35.595v24.046H54.896z"/>
</svg>
