<svg xmlns="http://www.w3.org/2000/svg" width="93.317" height="2.858cm">
  <path fill="#F49E9C" fill-rule="evenodd" d="M68.506 29.089l-9.34-3.676-.078-.188 4.035-9.289a2.395 2.395 0 0 0-.487-2.633L56.86 7.455a2.322 2.322 0 0 0-2.602-.495l-9.279 4.134-.037-.015-3.675-9.567A2.344 2.344 0 0 0 39.083 0h-8.168c-.967 0-1.834.6-2.185 1.512l-3.674 9.568a.412.412 0 0 0-.037.016l-9.28-4.134a2.323 2.323 0 0 0-2.601.494l-5.776 5.848a2.396 2.396 0 0 0-.488 2.634l4.037 9.289c-.027.062-.052.124-.078.187l-9.34 3.677A2.374 2.374 0 0 0 0 31.303v8.27c0 .979.593 1.857 1.493 2.212l9.192 3.619c.052.133.105.266.16.399l-3.97 9.135a2.397 2.397 0 0 0 .489 2.634l5.776 5.848a2.328 2.328 0 0 0 2.593.497l9.892-4.367v19.077c0 1.31 1.049 2.373 2.343 2.373h14.063c1.295 0 2.344-1.063 2.344-2.373v-19.18l9.874 4.461c.887.4 1.926.206 2.612-.489l5.776-5.848a2.395 2.395 0 0 0 .488-2.634l-3.971-9.136c.055-.132.109-.265.162-.399l9.19-3.619a2.374 2.374 0 0 0 1.493-2.211v-8.271c0-.978-.593-1.857-1.493-2.212zM39.687 47.56v28.694h-9.375V47.56c0-.836-.434-1.61-1.143-2.038a11.637 11.637 0 0 1-2.138-18.189v.985c0 4.449 3.575 8.069 7.969 8.069 4.393 0 7.969-3.62 7.969-8.069v-.985a11.642 11.642 0 0 1 3.437 8.262c0 4.047-2.136 7.851-5.576 9.927a2.38 2.38 0 0 0-1.143 2.038zm25.625-9.612l-8.672 3.416a2.359 2.359 0 0 0-1.363 1.426 21.717 21.717 0 0 1-.807 2.004 2.394 2.394 0 0 0-.022 1.961l3.741 8.608-3.502 3.545-9.827-4.439a2.345 2.345 0 0 0-.485-.157v-5.473c4.175-3.041 6.718-7.997 6.718-13.244 0-6.409-3.732-12.247-9.509-14.872a2.318 2.318 0 0 0-2.233.172 2.383 2.383 0 0 0-1.07 1.993v5.43c0 1.832-1.472 3.322-3.281 3.322-1.809 0-3.282-1.49-3.282-3.322v-5.43c0-.805-.403-1.555-1.07-1.993a2.318 2.318 0 0 0-2.233-.172c-5.777 2.625-9.509 8.463-9.509 14.872 0 5.247 2.543 10.203 6.719 13.244v5.533l-10.3 4.548-3.513-3.556 3.74-8.608a2.402 2.402 0 0 0-.022-1.961c-.3-.65-.573-1.325-.807-2.004a2.364 2.364 0 0 0-1.363-1.426L4.687 37.95v-5.024l8.802-3.466a2.363 2.363 0 0 0 1.349-1.39c.221-.609.476-1.219.755-1.812a2.4 2.4 0 0 0 .029-1.977l-3.811-8.769 3.508-3.552 8.753 3.898a2.315 2.315 0 0 0 1.927-.017c.55-.258 1.111-.492 1.667-.697a2.356 2.356 0 0 0 1.385-1.37l3.467-9.028h4.961l3.469 9.027a2.353 2.353 0 0 0 1.384 1.371c.556.205 1.117.438 1.668.696.61.285 1.311.292 1.926.018l8.753-3.899 3.508 3.552-3.81 8.77a2.402 2.402 0 0 0 .029 1.976c.278.591.532 1.2.754 1.812a2.368 2.368 0 0 0 1.351 1.391l8.801 3.464v5.024z"/>
</svg>
