<svg xmlns="http://www.w3.org/2000/svg" width="57.335" height="57.335">
  <path fill="none" stroke="#FFF" stroke-width="2" d="M20.999 1C32.045 1 41 9.954 41 21c0 11.045-8.955 20-20.001 20C9.954 41 1 32.045 1 21 1 9.954 9.954 1 20.999 1z"/>
  <path fill="#FFF" fill-rule="evenodd" d="M27.648 21.697l-5.988 9.997a.645.645 0 0 1-.548.314h-.005a.645.645 0 0 1-.548-.305l-6.144-9.901a7.724 7.724 0 0 1-1.156-4.07c0-4.268 3.473-7.74 7.74-7.74 4.269 0 7.74 3.472 7.74 7.74 0 1.399-.377 2.77-1.091 3.965zm-6.649-10.424c-3.556 0-6.458 2.902-6.458 6.459 0 1.202.341 2.374.971 3.39l5.585 9.002 5.444-9.089a6.449 6.449 0 0 0 .913-3.303c0-3.557-2.898-6.459-6.455-6.459zm0 10.329a3.865 3.865 0 0 1-3.869-3.87 3.874 3.874 0 0 1 3.869-3.87 3.874 3.874 0 0 1 3.871 3.87 3.863 3.863 0 0 1-3.871 3.87zm0-6.459a2.598 2.598 0 0 0-2.588 2.589 2.586 2.586 0 1 0 5.173 0 2.594 2.594 0 0 0-2.585-2.589z"/>
</svg>
