<svg xmlns="http://www.w3.org/2000/svg" width="3.528cm" height="3.528cm">
  <path fill="#F39D77" fill-rule="evenodd" d="M89.076 74.848l-24.623-6.476v-8.188c4.663-4.05 7.616-10.019 7.616-16.666v-3.73c4.39-.488 7.813-4.218 7.813-8.734 0-4.515-3.423-8.247-7.811-8.735v-1.811c0-7.784-6.103-14.17-13.775-14.623C57.094 2.461 53.829 0 49.999 0c-3.828 0-7.093 2.462-8.296 5.885-7.672.453-13.775 6.839-13.775 14.623v1.811c-4.388.488-7.812 4.219-7.812 8.735 0 4.517 3.424 8.247 7.813 8.734v3.73c0 6.647 2.954 12.617 7.618 16.666v8.188l-24.624 6.476C4.39 76.566-.001 82.26-.001 89.015v8.055a2.93 2.93 0 0 0 5.86 0v-8.055c0-4.053 2.634-7.469 6.554-8.5l1.259-.331v16.885a2.929 2.929 0 1 0 5.859 0V78.643l5.859-1.54v12.545a2.93 2.93 0 0 0 2.93 2.93h43.359a2.93 2.93 0 0 0 2.93-2.93V77.103l5.859 1.54v18.426a2.93 2.93 0 0 0 5.86 0V80.184l1.258.331c3.921 1.031 6.555 4.447 6.555 8.5v8.055a2.93 2.93 0 1 0 5.858 0v-8.055c0-6.755-4.39-12.449-10.923-14.167zm-63.1-43.794a2.932 2.932 0 0 1 2.929-2.929h1.953a2.93 2.93 0 0 0 2.93-2.93v-4.687c0-4.382 3.223-8.023 7.423-8.682v3.799a2.93 2.93 0 1 0 5.859 0V8.791v-.002a2.933 2.933 0 0 1 2.929-2.93 2.933 2.933 0 0 1 2.93 2.93v6.836a2.93 2.93 0 0 0 5.86 0v-3.799c4.2.659 7.423 4.301 7.423 8.682v4.687a2.93 2.93 0 0 0 2.929 2.93h1.952a2.933 2.933 0 0 1 2.93 2.929 2.933 2.933 0 0 1-2.93 2.93H28.905a2.932 2.932 0 0 1-2.929-2.93zm7.813 12.464v-3.674h32.422v3.674c0 8.938-7.272 16.211-16.212 16.211-8.939 0-16.21-7.273-16.21-16.211zm16.21 22.07c3.047 0 5.952-.621 8.594-1.742v6.616a12.503 12.503 0 0 1-8.676 3.507 12.467 12.467 0 0 1-8.511-3.348v-6.775a21.948 21.948 0 0 0 8.593 1.742zm18.75 21.131h-37.5V75.561l5.388-1.416a18.32 18.32 0 0 0 13.28 5.684c5.041 0 9.855-2.078 13.313-5.72l5.519 1.452v11.158z"/>
</svg>
