<svg xmlns="http://www.w3.org/2000/svg" width="57.335" height="57.335">
  <path fill="none" stroke="#FFF" stroke-width="2" d="M20.999 1C32.045 1 41 9.954 41 21c0 11.045-8.955 20-20.001 20C9.954 41 1 32.045 1 21 1 9.954 9.954 1 20.999 1z"/>
  <path fill="#FFF" fill-rule="evenodd" d="M31.434 26.192l-2.735-2.735a1.937 1.937 0 0 0-2.736 0L24.72 24.7a1.466 1.466 0 0 1-2.071 0l-5.389-5.393a1.465 1.465 0 0 1 0-2.072l1.243-1.242a1.932 1.932 0 0 0-.001-2.736l-2.733-2.726a1.936 1.936 0 0 0-2.733-.002l-.997.988a6.981 6.981 0 0 0 0 9.862l8.538 8.542a6.97 6.97 0 0 0 9.862 0l.995-.995a1.935 1.935 0 0 0 0-2.734zm-3.647-1.824l2.735 2.735a.645.645 0 0 1 0 .912l-.456.456-3.646-3.647.456-.456a.645.645 0 0 1 .911 0zm-12.93-12.924l2.735 2.725a.645.645 0 0 1 0 .912l-.456.456-3.644-3.645.453-.449a.646.646 0 0 1 .912.001zm6.631 17.566l-8.538-8.542a5.668 5.668 0 0 1-.355-7.649l3.634 3.634a2.75 2.75 0 0 0 .12 3.766l5.388 5.392a2.752 2.752 0 0 0 3.767.12l3.633 3.634a5.659 5.659 0 0 1-7.649-.355z"/>
</svg>
